<?xml version="1.0" encoding="utf-8"?>
<svg version="1.1" xmlns:xlink="http://www.w3.org/1999/xlink" width="16px" height="18px" xmlns="http://www.w3.org/2000/svg">
  <g transform="matrix(1 0 0 1 -120 -21 )">
    <path d="M 15.3998029603795 4.11802558877268  L 15.4008374330357 4.11802558877268  C 15.1585120503935 3.62802276336359  14.7484775930209 3.24476647802589  14.2477339955357 3.04022802293347  L 6.64256157366071 0.198921017200101  C 5.57787641322421 -0.185241690563688  4.40705912136028 0.37158668224285  4.01532020647321 1.44840934097782  L 3.72428571428572 2.27567852759577  L 2.12566503069196 2.27567852759577  C 2.11873187518194 2.27560607978725  2.11179839890665 2.27556985516477  2.10486487680684 2.27556985516477  C 0.987726142102717 2.27556985516477  0.0821062635255854 3.19579650597702  0.0821062635255854 4.33095360736991  C 0.0821062635255854 4.33811456425553  0.0821430926672936 4.34527547224734  0 4.35243603799143  L 0 15.4678364931956  C 0.0821430678844724 15.4749982633661  0.0821062263508457 15.4821603759572  0.0821062263508457 15.4893225374668  C 0.0821062263508457 16.6244796388597  0.987726104927978 17.5447062896719  2.1048648396321 17.5447062896719  C 2.11191332248167 17.5447062896719  2.11896175718942 17.5446688538516  2.12600985491072 17.544593983745  L 10.2849753627232 17.544593983745  C 10.2915636903259 17.5446594036821  10.2981522931703 17.5446921142363  10.3047409353356 17.5446921142363  C 11.4218796700397 17.5446921142363  12.3274995486168 16.6244654634241  12.3274995486168 15.4893083620312  C 12.3274995486168 15.4821509259571  12.3274627556816 15.4749935387047  12.327389171317 15.4678364931956  L 12.327389171317 14.6405673065776  L 15.5232512220982 5.69477753811744  C 15.6887412766878 5.1732641119163  15.6443592477145 4.60639140163992  15.3998029603795 4.11802558877268  Z M 4.55325122209821 2.3390989906754  L 4.75290639787946 1.79214126260081  C 4.92377464154967 1.29264439691909  5.38713546857849 0.957837907637423  5.90755394780651 0.957837907637423  C 6.05944581438265 0.957837907637423  6.2100073827716 0.986602532946025  6.35152710100446 1.04265849987399  L 9.86876846819196 2.3390989906754  L 4.55325122209821 2.3390989906754  Z M 14.708768468192 5.44530033644153  L 12.252216749442 12.236195764869  L 12.252216749442 4.41515572927167  C 12.2633243222329 3.90177546810319  12.069249207732 3.40572814121762  11.7142857142857 3.04022802293347  L 13.9725615736607 3.86749720955141  C 14.2917946603763 3.97184299176891  14.5460966008484 4.21952283000175  14.662216749442 4.5391935483871  C 14.8255785751129 4.81438297239367  14.8431670700332 5.15421728916842  14.7091132924107 5.44530033644153  Z " fill-rule="nonzero" fill="#409eff" stroke="none" transform="matrix(1 0 0 1 120 21 )" />
  </g>
</svg>